<svg xmlns="http://www.w3.org/2000/svg" viewBox="0 0 40 40" width="40" height="40" fill="none" stroke="currentColor" stroke-width="1.5" stroke-linecap="round" stroke-linejoin="round" aria-hidden="true" focusable="false"><path d="M13 12 L20 5 L27 12 L27 16 L13 16 Z"/><path d="M15 18 L10 22.5"/><path d="M20 18 L20 22.5"/><path d="M25 18 L30 22.5"/><circle cx="8" cy="28" r="2.8"/><path d="M4 36 a4 4 0 0 1 8 0"/><circle cx="20" cy="28" r="2.8"/><path d="M16 36 a4 4 0 0 1 8 0"/><circle cx="32" cy="28" r="2.8"/><path d="M28 36 a4 4 0 0 1 8 0"/></svg>
